<svg width="912" height="16" viewBox="0 0 912 16" fill="none" xmlns="http://www.w3.org/2000/svg">
<path d="M781 9C780.448 9 780 9.44772 780 10C780 10.5523 780.448 11 781 11V9ZM911.773 10L906 4.2265L900.226 10L906 15.7735L911.773 10ZM787.25 11C787.802 11 788.25 10.5523 788.25 10C788.25 9.44772 787.802 9 787.25 9V11ZM799.75 9C799.198 9 798.75 9.44772 798.75 10C798.75 10.5523 799.198 11 799.75 11V9ZM812.25 11C812.802 11 813.25 10.5523 813.25 10C813.25 9.44772 812.802 9 812.25 9V11ZM824.75 9C824.198 9 823.75 9.44772 823.75 10C823.75 10.5523 824.198 11 824.75 11V9ZM837.25 11C837.802 11 838.25 10.5523 838.25 10C838.25 9.44772 837.802 9 837.25 9V11ZM849.75 9C849.198 9 848.75 9.44772 848.75 10C848.75 10.5523 849.198 11 849.75 11V9ZM862.25 11C862.802 11 863.25 10.5523 863.25 10C863.25 9.44772 862.802 9 862.25 9V11ZM874.75 9C874.198 9 873.75 9.44772 873.75 10C873.75 10.5523 874.198 11 874.75 11V9ZM887.25 11C887.802 11 888.25 10.5523 888.25 10C888.25 9.44772 887.802 9 887.25 9V11ZM899.75 9C899.198 9 898.75 9.44772 898.75 10C898.75 10.5523 899.198 11 899.75 11V9ZM781 11L787.25 11V9L781 9V11ZM799.75 11L812.25 11V9L799.75 9V11ZM824.75 11L837.25 11V9L824.75 9V11ZM849.75 11L862.25 11V9L849.75 9V11ZM874.75 11L887.25 11V9L874.75 9V11ZM899.75 11L906 11V9L899.75 9V11Z" fill="#794187"/>
<path d="M398 9C397.448 9 397 9.44772 397 10C397 10.5523 397.448 11 398 11L398 9ZM569.774 10L564 4.22651L558.227 10L564 15.7735L569.774 10ZM403.929 11C404.481 11 404.929 10.5523 404.929 10C404.929 9.44772 404.481 9 403.929 9L403.929 11ZM415.786 9C415.233 9 414.786 9.44772 414.786 10C414.786 10.5523 415.233 11 415.786 11L415.786 9ZM427.643 11C428.195 11 428.643 10.5523 428.643 10C428.643 9.44772 428.195 9 427.643 9L427.643 11ZM439.5 9C438.948 9 438.5 9.44772 438.5 10C438.5 10.5523 438.948 11 439.5 11L439.5 9ZM451.357 11C451.909 11 452.357 10.5523 452.357 10C452.357 9.44772 451.909 9 451.357 9L451.357 11ZM463.214 9.00001C462.662 9.00001 462.214 9.44772 462.214 10C462.214 10.5523 462.662 11 463.214 11L463.214 9.00001ZM475.071 11C475.624 11 476.071 10.5523 476.071 10C476.071 9.44772 475.624 9.00001 475.071 9.00001L475.071 11ZM486.929 9.00001C486.376 9.00001 485.929 9.44772 485.929 10C485.929 10.5523 486.376 11 486.929 11L486.929 9.00001ZM498.786 11C499.338 11 499.786 10.5523 499.786 10C499.786 9.44772 499.338 9.00001 498.786 9.00001L498.786 11ZM510.643 9.00001C510.091 9.00001 509.643 9.44772 509.643 10C509.643 10.5523 510.091 11 510.643 11L510.643 9.00001ZM522.5 11C523.052 11 523.5 10.5523 523.5 10C523.5 9.44773 523.052 9.00001 522.5 9.00001L522.5 11ZM534.357 9.00001C533.805 9.00001 533.357 9.44773 533.357 10C533.357 10.5523 533.805 11 534.357 11L534.357 9.00001ZM546.214 11C546.767 11 547.214 10.5523 547.214 10C547.214 9.44773 546.767 9.00001 546.214 9.00001L546.214 11ZM558.071 9.00001C557.519 9.00001 557.071 9.44773 557.071 10C557.071 10.5523 557.519 11 558.071 11L558.071 9.00001ZM398 11L403.929 11L403.929 9L398 9L398 11ZM415.786 11L427.643 11L427.643 9L415.786 9L415.786 11ZM439.5 11L451.357 11L451.357 9L439.5 9L439.5 11ZM463.214 11L475.071 11L475.071 9.00001L463.214 9.00001L463.214 11ZM486.929 11L498.786 11L498.786 9.00001L486.929 9.00001L486.929 11ZM510.643 11L522.5 11L522.5 9.00001L510.643 9.00001L510.643 11ZM534.357 11L546.214 11L546.214 9.00001L534.357 9.00001L534.357 11ZM558.071 11L564 11L564 9.00001L558.071 9.00001L558.071 11Z" fill="#794187"/>
<path d="M1 5C0.447715 5 4.82823e-08 5.44772 0 6C-4.82823e-08 6.55228 0.447715 7 1 7L1 5ZM172.774 6.00002L167 0.226512L161.227 6.00001L167 11.7735L172.774 6.00002ZM6.92857 7C7.48086 7 7.92857 6.55229 7.92857 6C7.92857 5.44772 7.48086 5 6.92857 5L6.92857 7ZM18.7857 5C18.2334 5 17.7857 5.44772 17.7857 6C17.7857 6.55229 18.2334 7 18.7857 7L18.7857 5ZM30.6429 7C31.1951 7 31.6429 6.55229 31.6429 6C31.6429 5.44772 31.1951 5 30.6429 5L30.6429 7ZM42.5 5C41.9477 5 41.5 5.44772 41.5 6C41.5 6.55229 41.9477 7 42.5 7L42.5 5ZM54.3571 7C54.9094 7 55.3571 6.55229 55.3571 6C55.3571 5.44772 54.9094 5 54.3571 5L54.3571 7ZM66.2143 5.00001C65.662 5.00001 65.2143 5.44772 65.2143 6.00001C65.2143 6.55229 65.662 7.00001 66.2143 7.00001L66.2143 5.00001ZM78.0714 7.00001C78.6237 7.00001 79.0714 6.55229 79.0714 6.00001C79.0714 5.44772 78.6237 5.00001 78.0714 5.00001L78.0714 7.00001ZM89.9286 5.00001C89.3763 5.00001 88.9286 5.44772 88.9286 6.00001C88.9286 6.55229 89.3763 7.00001 89.9286 7.00001L89.9286 5.00001ZM101.786 7.00001C102.338 7.00001 102.786 6.55229 102.786 6.00001C102.786 5.44772 102.338 5.00001 101.786 5.00001L101.786 7.00001ZM113.643 5.00001C113.091 5.00001 112.643 5.44772 112.643 6.00001C112.643 6.55229 113.091 7.00001 113.643 7.00001L113.643 5.00001ZM125.5 7.00001C126.052 7.00001 126.5 6.5523 126.5 6.00001C126.5 5.44773 126.052 5.00001 125.5 5.00001L125.5 7.00001ZM137.357 5.00001C136.805 5.00001 136.357 5.44773 136.357 6.00001C136.357 6.5523 136.805 7.00001 137.357 7.00001L137.357 5.00001ZM149.214 7.00001C149.767 7.00001 150.214 6.5523 150.214 6.00001C150.214 5.44773 149.767 5.00001 149.214 5.00001L149.214 7.00001ZM161.071 5.00001C160.519 5.00001 160.071 5.44773 160.071 6.00001C160.071 6.5523 160.519 7.00001 161.071 7.00001L161.071 5.00001ZM1 7L6.92857 7L6.92857 5L1 5L1 7ZM18.7857 7L30.6429 7L30.6429 5L18.7857 5L18.7857 7ZM42.5 7L54.3571 7L54.3571 5L42.5 5L42.5 7ZM66.2143 7.00001L78.0714 7.00001L78.0714 5.00001L66.2143 5.00001L66.2143 7.00001ZM89.9286 7.00001L101.786 7.00001L101.786 5.00001L89.9286 5.00001L89.9286 7.00001ZM113.643 7.00001L125.5 7.00001L125.5 5.00001L113.643 5.00001L113.643 7.00001ZM137.357 7.00001L149.214 7.00001L149.214 5.00001L137.357 5.00001L137.357 7.00001ZM161.071 7.00001L167 7.00001L167 5.00001L161.071 5.00001L161.071 7.00001Z" fill="#794187"/>
</svg>
